PathFileType	4	(X/Y/Z)	Kaydara																																																																																																																									
DataRate	CameraRate	NumFrames	NumMarkers	Units	OrigDataRate	OrigDataStartFrame	OrigNumFrames																																																																																																																					
30	30	4	41	mm	30	107	147																																																																																																																					
Frame#	Time	PAIB_LFHD			PAIB_RFHD			PAIB_LBHD			PAIB_RBHD			PAIB_LFTShould			PAIB_RFTShould			PAIB_LRRShould			PAIB_RRRShould			PAIB_T10			PAIB_STRN			PAIB_TRUN			PAIB_LSHO			PAIB_LUPA			PAIB_LELB			PAIB_LFRM			PAIB_LWRA			PAIB_LWRB			PAIB_LFIN			PAIB_RSHO			PAIB_RUPA			PAIB_RELB			PAIB_RFRM			PAIB_RWRA			PAIB_RWRB			PAIB_RFIN			PAIB_LFWT			PAIB_RFWT			PAIB_LBWT			PAIB_RBWT			PAIB_LTHI			PAIB_LKNE			PAIB_LSHN			PAIB_LANK			PAIB_LHEE			PAIB_LTOE			PAIB_RTHI			PAIB_RKNE			PAIB_RSHN			PAIB_RANK			PAIB_RHEE			PAIB_RTOE		
		X1	Y1	Z1	X2	Y2	Z2	X3	Y3	Z3	X4	Y4	Z4	X5	Y5	Z5	X6	Y6	Z6	X7	Y7	Z7	X8	Y8	Z8	X9	Y9	Z9	X10	Y10	Z10	X11	Y11	Z11	X12	Y12	Z12	X13	Y13	Z13	X14	Y14	Z14	X15	Y15	Z15	X16	Y16	Z16	X17	Y17	Z17	X18	Y18	Z18	X19	Y19	Z19	X20	Y20	Z20	X21	Y21	Z21	X22	Y22	Z22	X23	Y23	Z23	X24	Y24	Z24	X25	Y25	Z25	X26	Y26	Z26	X27	Y27	Z27	X28	Y28	Z28	X29	Y29	Z29	X30	Y30	Z30	X31	Y31	Z31	X32	Y32	Z32	X33	Y33	Z33	X34	Y34	Z34	X35	Y35	Z35	X36	Y36	Z36	X37	Y37	Z37	X38	Y38	Z38	X39	Y39	Z39	X40	Y40	Z40	X41	Y41	Z41
																																																																																																																												
92	3.533	277.00373	1631.50131	-164.50888	91.926	1641.03989	-171.79167	285.23853	1558.32413	-271.96537	83.3605	1583.81287	-273.17692	247.65642	1366.35956	-120.76336	127.15172	1370.08575	-99.25381	229.31381	1427.44965	-268.2077	87.34671	1438.20099	-236.63734	135.5606	1273.42476	-331.6787	198.87592	1299.0892	-71.09686	195.83086	1197.01996	-52.08478	354.06784	1390.58075	-241.48775	438.31932	1203.60619	-304.70436	452.29763	1131.97075	-382.63077	525.92674	1032.88757	-381.72077	571.66683	907.49634	-300.0559	563.46661	903.95691	-381.81072	621.4069	876.84273	-347.35752	-2.37692	1392.33322	-141.21696	-110.96193	1246.2365	-144.49198	-163.27223	1146.44028	-113.21212	-138.27794	1060.14908	1.97073	-21.65965	1050.73158	104.26578	-95.28522	1008.66554	111.52306	-60.61906	1035.73891	171.37028	272.1096	913.24295	-115.21043	39.34829	886.25557	-113.66935	225.83969	951.22414	-330.33794	80.39411	957.20505	-326.24062	280.26917	663.44009	-238.0155	292.00531	478.10566	-18.10328	254.71596	297.55844	41.65884	250.30546	97.20032	3.10448	193.63043	82.51752	-42.77176	233.88683	64.47667	179.55866	40.2927	702.33139	-384.9176	28.25833	450.52242	-401.96354	91.40553	281.27472	-486.88297	69.16589	159.53395	-673.84529	135.28296	196.7942	-706.67908	100.87875	58.41692	-551.37402
93	3.567	286.20558	1633.11584	-110.20429	101.17962	1643.39432	-116.86065	293.50012	1556.04431	-214.95262	91.64712	1582.78549	-216.17075	254.31684	1365.66956	-60.91198	134.76581	1371.03241	-37.64167	235.37266	1430.24338	-206.07533	92.53576	1441.81747	-171.64373	137.73495	1278.68172	-270.86538	205.52866	1299.11697	-11.22914	201.6506	1196.8055	6.86844	361.26854	1388.79303	-179.03301	439.88785	1195.22217	-236.08881	453.87966	1120.23476	-310.12613	522.54528	1018.7706	-306.37703	560.22926	892.1199	-223.31623	554.20292	888.40233	-304.35421	609.8418	858.73436	-268.35421	2.26827	1392.22458	-74.99198	-104.1165	1242.34657	-93.89225	-154.89669	1139.37988	-73.4409	-135.40346	1043.9959	35.59017	-26.7874	1030.09933	146.4563	-98.63276	983.8868	143.39774	-71.90084	1008.84438	207.34512	278.83818	919.56123	-59.27539	46.72417	887.91534	-54.88345	223.88008	953.71788	-274.33241	79.14896	954.79904	-268.53844	282.18973	668.95103	-182.1998	291.29246	487.54929	40.64032	253.83986	294.75737	78.46117	251.56517	97.63584	17.14749	196.94019	88.32538	-32.85223	232.89944	52.79585	189.32899	39.59717	686.6053	-314.2625	23.9132	434.47632	-309.06015	83.75597	284.97265	-425.84408	59.37918	206.80428	-637.71244	124.67443	251.12583	-653.9521	103.11273	61.78144	-570.8498
94	3.6	293.06721	1637.76077	-55.06677	108.22821	1650.1329	-61.34049	299.28339	1559.65546	-159.13623	97.79028	1588.74863	-160.09897	257.17854	1370.3006	-4.11172	137.82825	1375.93781	17.15561	241.27483	1435.35919	-150.19209	97.01291	1447.32941	-117.92065	143.75989	1284.16107	-216.64742	207.42805	1303.42667	44.39102	203.05256	1201.03943	61.91998	367.06875	1390.96649	-117.08891	440.22984	1190.58121	-163.7516	454.62765	1112.9586	-232.98761	516.92486	1007.8022	-222.56748	541.25641	880.48943	-135.65302	540.39082	875.8239	-216.19026	591.51997	843.11478	-177.17764	5.79047	1396.05209	-21.44256	-96.3764	1242.73865	-46.4671	-144.66532	1137.11266	-36.60128	-132.45102	1028.8179	61.27521	-33.20188	1001.99463	178.58479	-102.79108	954.76639	162.63622	-85.0691	972.92137	230.92159	285.58731	924.27711	-5.04438	52.63827	892.83913	0.68847	226.39822	956.66183	-221.67408	80.95288	953.65021	-214.86526	283.07718	671.25366	-137.08036	299.52976	477.05929	70.14483	256.24619	287.38201	99.56	251.90294	97.35991	22.68888	198.92841	91.41912	-29.70808	230.39103	51.04901	191.42521	37.51825	664.10263	-234.18118	20.35462	420.41756	-205.58231	84.27042	296.30962	-342.52541	53.68687	256.38927	-560.59437	114.10789	306.26608	-573.79143	96.51766	75.21319	-527.18616
95	3.633	296.24983	1649.1626	0.0069	111.65742	1661.79474	-6.88205	302.83379	1572.94266	-105.35723	101.29416	1602.14462	-106.46082	255.97239	1381.21719	51.28217	135.14602	1387.47223	66.6663	248.47769	1445.54123	-96.45387	101.26425	1456.6864	-71.34173	153.38351	1292.91656	-165.33642	204.64035	1314.758	97.59492	200.17914	1212.38167	115.20976	372.6091	1396.87729	-53.81286	439.0723	1189.96887	-88.60741	455.99236	1110.28374	-153.90805	509.83047	1001.8235	-133.66157	515.13912	876.44287	-40.98755	523.63514	868.93372	-120.98105	566.65115	833.64098	-75.00691	3.6849	1405.57724	20.21043	-90.53144	1246.6523	-8.58298	-132.91991	1137.48199	-1.62525	-130.44167	1018.61076	81.66928	-41.2234	971.11435	200.04295	-110.942	929.81506	172.56815	-97.07973	934.67461	243.48019	291.99032	931.54907	47.21473	58.58212	904.39888	55.12537	226.63147	968.63365	-168.92319	81.27775	959.57901	-161.88297	283.75063	682.31842	-99.35045	301.15524	474.65611	91.60085	257.14825	283.24312	110.49735	251.43892	98.23066	23.32917	198.14304	93.72834	-29.29228	228.80239	51.06809	191.51747	41.35275	658.50845	-155.32487	13.76555	424.8336	-98.5075	81.63074	308.96109	-241.00861	60.48363	289.19699	-465.73132	123.27449	331.88801	-471.14254	76.62797	115.62648	-429.94923
